<svg version="1.1" xmlns="http://www.w3.org/2000/svg" viewBox="0 0 32 32">
    <defs>
        <style>
            .bg {
                fill: transparent;
            }
            .icon {
                fill: #55c96b;
            }
        </style>
    </defs>

    <g>
        <circle class="bg" cx="16" cy="16" r="16" />
        <path class="icon" d="M14.205 4.82l1.511-0.491c0.234-0.076 0.486 0.052 0.562 0.286l0.491 1.511c0.076 0.234-0.052 0.486-0.286 0.562l-1.511 0.491c-0.234 0.076-0.486-0.052-0.562-0.286l-0.491-1.511c-0.076-0.234 0.052-0.486 0.286-0.562z" />
        <path class="icon" d="M12.426 14.76h-2.171c-0.246 0-0.446-0.199-0.446-0.446v-1.586c0-0.246 0.199-0.446 0.446-0.446h0.693l-1.745-5.37c-0.076-0.234 0.052-0.485 0.287-0.561l1.509-0.49c0.234-0.076 0.485 0.052 0.561 0.287l2.201 6.775c0.044 0.135 0.020 0.284-0.063 0.4l-0.911 1.255c-0.083 0.116-0.218 0.184-0.361 0.184v0z" />
        <path class="icon" d="M5.303 12.283h1.588c0.246 0 0.446 0.2 0.446 0.446v1.588c0 0.246-0.2 0.446-0.446 0.446h-1.588c-0.246 0-0.446-0.2-0.446-0.446v-1.588c0-0.246 0.2-0.446 0.446-0.446z" />
        <path class="icon" d="M12.53 21.428l-1.509-0.491c-0.234-0.076-0.362-0.327-0.287-0.561l0.214-0.659h-5.646c-0.246 0-0.446-0.199-0.446-0.446v-1.586c0-0.246 0.199-0.446 0.446-0.446h7.124c0.143 0 0.276 0.069 0.361 0.184l0.911 1.255c0.083 0.116 0.108 0.264 0.063 0.4l-0.67 2.064c-0.076 0.234-0.327 0.362-0.561 0.287v0z" />
        <path class="icon" d="M9.204 25.086l0.491-1.511c0.076-0.234 0.328-0.362 0.562-0.286l1.511 0.491c0.234 0.076 0.362 0.328 0.286 0.562l-0.491 1.511c-0.076 0.234-0.328 0.362-0.562 0.286l-1.511-0.491c-0.234-0.076-0.362-0.328-0.286-0.562z" />
        <path class="icon" d="M15.713 27.671l-1.509-0.491c-0.234-0.076-0.362-0.327-0.287-0.561l2.201-6.775c0.044-0.135 0.15-0.242 0.287-0.287l1.474-0.479c0.135-0.044 0.284-0.020 0.4 0.063l1.756 1.276c0.199 0.145 0.244 0.423 0.098 0.622l-0.933 1.284c-0.145 0.199-0.423 0.244-0.622 0.098l-0.56-0.407-1.745 5.37c-0.076 0.234-0.327 0.362-0.561 0.287v0z" />
        <path class="icon" d="M21.203 23.777l0.934-1.285c0.145-0.199 0.424-0.243 0.623-0.099l1.285 0.934c0.199 0.145 0.243 0.424 0.099 0.623l-0.934 1.285c-0.145 0.199-0.424 0.243-0.623 0.099l-1.285-0.934c-0.199-0.145-0.243-0.424-0.099-0.623z" />
        <path class="icon" d="M17.881 12.922l-1.474-0.479c-0.135-0.044-0.242-0.15-0.287-0.287l-0.67-2.064c-0.076-0.234 0.052-0.485 0.287-0.561l1.509-0.491c0.234-0.076 0.485 0.052 0.561 0.287l0.214 0.659 4.567-3.319c0.199-0.145 0.477-0.101 0.622 0.098l0.933 1.284c0.145 0.199 0.101 0.477-0.098 0.622l-5.764 4.187c-0.116 0.083-0.264 0.108-0.4 0.063v0z" />
        <path class="icon" d="M25.501 21.323l-5.764-4.187c-0.116-0.083-0.184-0.218-0.184-0.361v-1.55c0-0.143 0.069-0.276 0.184-0.361l1.756-1.276c0.199-0.145 0.477-0.101 0.622 0.098l0.933 1.284c0.145 0.199 0.101 0.477-0.098 0.622l-0.56 0.407 4.568 3.319c0.199 0.145 0.244 0.423 0.098 0.622l-0.933 1.284c-0.145 0.199-0.423 0.244-0.622 0.098v-0.002z" />
        <path class="icon" d="M24.215 11.61l1.285-0.934c0.199-0.145 0.478-0.101 0.623 0.099l0.934 1.285c0.145 0.199 0.101 0.478-0.099 0.623l-1.285 0.934c-0.199 0.145-0.478 0.101-0.623-0.099l-0.934-1.285c-0.145-0.199-0.101-0.478 0.099-0.623z" />
    </g>
</svg>
