<svg id="Layer_1" data-name="Layer 1" xmlns="http://www.w3.org/2000/svg" viewBox="0 0 388.61 268.76"><defs><style>.cls-1{fill:#a1c639;}</style></defs><title>API</title><g id="_27-App" data-name=" 27-App"><path d="M315.39,224.7H128.29a9.67,9.67,0,0,1-9.67-9.68V73.09a9.67,9.67,0,0,1,9.67-9.68h187.1a9.68,9.68,0,0,1,9.68,9.68V215A9.68,9.68,0,0,1,315.39,224.7ZM128.29,69.86a3.22,3.22,0,0,0-3.22,3.23V215a3.23,3.23,0,0,0,3.22,3.23h187.1a3.23,3.23,0,0,0,3.23-3.23V73.09a3.23,3.23,0,0,0-3.23-3.23Z" transform="translate(-90.07 -9.67)"/><path d="M263.78,263.41H179.91a3.23,3.23,0,0,1-3.23-3.23V250.5a3.19,3.19,0,0,1,.41-1.56l16.13-29,5.63,3.14-15.72,28.3V257h77.42v-5.62L244.83,223l5.64-3.14,16.13,29a3.29,3.29,0,0,1,.4,1.56v9.68A3.23,3.23,0,0,1,263.78,263.41Z" transform="translate(-90.07 -9.67)"/><path d="M179.91,247.28h83.87v6.45H179.91Z" transform="translate(-90.07 -9.67)"/><path d="M170.23,257h9.68v6.45h-9.68Z" transform="translate(-90.07 -9.67)"/><path d="M263.78,257h9.67v6.45h-9.67Z" transform="translate(-90.07 -9.67)"/><path d="M121.84,192.44h200v6.45h-200Z" transform="translate(-90.07 -9.67)"/><path d="M254.1,176.31h54.84v6.45H254.1Z" transform="translate(-90.07 -9.67)"/><path d="M260.55,163.41h48.39v6.45H260.55Z" transform="translate(-90.07 -9.67)"/><path d="M254.1,92.44h54.84v6.45H254.1Z" transform="translate(-90.07 -9.67)"/><path d="M247.65,79.54h61.29V86H247.65Z" transform="translate(-90.07 -9.67)"/><path d="M292.81,150.5h16.13V157H292.81Z" transform="translate(-90.07 -9.67)"/><path d="M270.23,150.5h16.13V157H270.23Z" transform="translate(-90.07 -9.67)"/><path d="M292.81,105.34h16.13v6.45H292.81Z" transform="translate(-90.07 -9.67)"/><path d="M270.23,105.34h16.13v6.45H270.23Z" transform="translate(-90.07 -9.67)"/><path d="M183.13,163.41h-6.45V121.47a9.21,9.21,0,0,0-8.7-9.68c-.32,0-.65,0-1,0h-6.45a9.22,9.22,0,0,0-9.68,8.71c0,.32,0,.65,0,1v41.94h-6.45V121.47a15.56,15.56,0,0,1,15-16.13c.4,0,.79,0,1.18,0H167a15.55,15.55,0,0,1,16.13,15,11.41,11.41,0,0,1,0,1.17Z" transform="translate(-90.07 -9.67)"/><path d="M147.65,140.83h32.26v6.45H147.65Z" transform="translate(-90.07 -9.67)"/><path d="M196,163.41h-6.46V108.57a3.23,3.23,0,0,1,3.23-3.23h16.13c3.35,0,9.68,2.7,9.68,12.91,0,15.8-13.51,23.05-22.58,25.24Zm0-51.62v25c5.74-1.72,16.12-6.49,16.12-18.52,0-5.94-2.76-6.42-3.32-6.46Z" transform="translate(-90.07 -9.67)"/><path d="M225.07,105.34h25.8v6.45h-25.8Z" transform="translate(-90.07 -9.67)"/><path d="M225.07,157h25.8v6.45h-25.8Z" transform="translate(-90.07 -9.67)"/><path d="M234.74,108.57h6.46v51.61h-6.46Z" transform="translate(-90.07 -9.67)"/></g><path d="M415.15,153H412A21.23,21.23,0,0,0,392,166.15a20.74,20.74,0,0,0,4.68,23.18l2.26,2.24-12.84,12.67L383.88,202a21.42,21.42,0,0,0-23.49-4.62,21,21,0,0,0-13.3,19.66v3.15H324.4V191.4A50.22,50.22,0,0,0,338,193.33c27.52,0,49.92-22.11,49.92-49.28S365.53,94.78,338,94.78a50.22,50.22,0,0,0-13.61,1.93V67.9h22.69v3.16a21,21,0,0,0,13.3,19.66,21.41,21.41,0,0,0,23.49-4.62l2.26-2.23L399,96.54l-2.26,2.24A20.74,20.74,0,0,0,392.05,122,21.21,21.21,0,0,0,412,135.09h3.19Zm49.92-4.48a4.48,4.48,0,1,1,4.54-4.48A4.51,4.51,0,0,1,465.07,148.53Z" transform="translate(-90.07 -9.67)"/><path d="M465.07,58.94a13.59,13.59,0,0,0-12.78,9H428.77a4.56,4.56,0,0,0-3.63,1.8L411.52,87.61,418.78,93,431,76.86h21.25a13.56,13.56,0,1,0,12.78-17.92Zm0,17.92a4.48,4.48,0,1,1,4.54-4.48A4.51,4.51,0,0,1,465.07,76.86Z" transform="translate(-90.07 -9.67)"/><path d="M465.07,9.67a13.59,13.59,0,0,0-12.78,9H365.24a4.5,4.5,0,0,0-4.54,4.48v22.4h9.08V27.59h82.51a13.61,13.61,0,0,0,26.4-4.48A13.55,13.55,0,0,0,465.07,9.67Zm0,17.92a4.48,4.48,0,1,1,4.54-4.48A4.52,4.52,0,0,1,465.07,27.59Z" transform="translate(-90.07 -9.67)"/><path d="M465.07,202.28a13.59,13.59,0,0,0-12.78,9H431l-12.26-16.12-7.26,5.37,13.62,17.92a4.54,4.54,0,0,0,3.63,1.79h23.52a13.56,13.56,0,1,0,12.78-17.92Zm0,17.92a4.48,4.48,0,1,1,4.54-4.48A4.51,4.51,0,0,1,465.07,220.2Z" transform="translate(-90.07 -9.67)"/><path d="M465.07,251.56a13.59,13.59,0,0,0-12.78,9H369.78V242.6H360.7V265a4.51,4.51,0,0,0,4.54,4.48h87.05a13.56,13.56,0,1,0,12.78-17.92Zm0,17.92a4.48,4.48,0,1,1,4.54-4.48A4.52,4.52,0,0,1,465.07,269.48Z" transform="translate(-90.07 -9.67)"/><path class="cls-1" d="M375.91,138.38a69.61,69.61,0,0,0-3.86-10.93c-.12-.36-.22-.73-.35-1.1a41.28,41.28,0,0,0-7.19-12.68c-.64-1-1.28-2-1.94-3-2.27-3.35-5-6.46-9.18-7.14a10.07,10.07,0,0,0-3.1,0,23.8,23.8,0,0,0-16.22.51c-4.44,1.71-2.93,8.56,1.2,8a3.92,3.92,0,0,0,1.32,1.08,45.57,45.57,0,0,1,22.16,26.14A43.47,43.47,0,0,1,360.91,156c-.63,8.54-5.16,12.84-12,17.28a4,4,0,0,0,4,6.91,33.53,33.53,0,0,0,5.07-3.29,3,3,0,0,0,.46.48c7.48,5.87,13.7-4.63,16.16-10.66C378.3,157.73,378.31,147.65,375.91,138.38Z" transform="translate(-90.07 -9.67)"/><path class="cls-1" d="M209.27,207.21c-2.55-5.66-11.63-3.93-16.36-3.9l-52.15.33a4.1,4.1,0,0,0-1.26.22,4.05,4.05,0,0,0-4.17-1.74c-4.63.84-6.51,6.72-3.8,10.43,3.67,5,11.89,3.51,17.18,3.47,17.45-.13,35,.12,52.4-.41C205.54,215.48,211.86,213,209.27,207.21Z" transform="translate(-90.07 -9.67)"/><path class="cls-1" d="M158,24.36c-1.93-2.49-3.95-5.24-6.9-6.59-3.63-1.66-7.86-.59-11.68-.4-3,.15-6.19.22-9.38.36-.82-.14-1.6-.25-2.33-.31-4.25-.39-9.5-.3-13.15,2.27-6.38,1.66-12.13,4.76-16.29,10.72-4.92,7.05-5.77,15.94-6.87,24.22-1.31,10-2,19.78-.2,29.73a3.36,3.36,0,0,0,2.07,2.49c-1.16,4.38,5.17,7.88,7.12,3.38,3-7,2.46-14,3.54-21.32,1.28-8.64,7.23-12.35,15.24-14.23s16.59-2.75,24.85-4c6.94-1.06,15.48-1.06,18.39-8.73C164.81,35.57,161.88,29.4,158,24.36Zm-2.9,10.89a6.58,6.58,0,0,1,.13,2.78,4.19,4.19,0,0,0-1.5-.55,29.07,29.07,0,0,0,.6-4.42A11.8,11.8,0,0,1,155.08,35.25Zm-38.32,1.82.4.26c-.65.28-1.3.57-1.93.88C115.72,37.81,116.24,37.43,116.76,37.07Zm12.15,5.7a37.69,37.69,0,0,1-4.75,1.86A18,18,0,0,1,128.91,42.77Zm18.77-17.64c-.41,0-.81,0-1.22.06l-.36-.34A5.74,5.74,0,0,1,147.68,25.13Z" transform="translate(-90.07 -9.67)"/><path class="cls-1" d="M465.24,19.62c-5.15,0-5.15,8,0,8S470.4,19.62,465.24,19.62Z" transform="translate(-90.07 -9.67)"/><path class="cls-1" d="M466.24,68.39c-5.15,0-5.16,8,0,8S471.39,68.39,466.24,68.39Z" transform="translate(-90.07 -9.67)"/><path class="cls-1" d="M464.25,211.73c-5.15,0-5.16,8,0,8S469.4,211.73,464.25,211.73Z" transform="translate(-90.07 -9.67)"/><path class="cls-1" d="M465.24,260.5c-5.15,0-5.15,8,0,8S470.4,260.5,465.24,260.5Z" transform="translate(-90.07 -9.67)"/><path class="cls-1" d="M413.88,38a4.1,4.1,0,0,0-3.79-4.88,142.9,142.9,0,0,0-19.56-.5c-3.09-.57-6.17-1-9.24-1.33-5-.47-6.56,2.87-6.89,7-1.34,3.27-.84,7.73-.92,11.67-.06,3.28,3.88,4.77,6.23,3.44l.09.21c2.28,4.61,9.18.56,6.91-4-1.45-2.94-1.58-4.49,1.83-5.32,2.08-.5,5.06.15,7.2.23L411.1,45C414.82,45.14,416.19,40.11,413.88,38Z" transform="translate(-90.07 -9.67)"/><path class="cls-1" d="M414.29,247l-1.16,0a4,4,0,0,0-.83-.21l-12.72-1.82c-3.65-.52-7.94-.62-11.45-1.82a7,7,0,0,1-4.46-4.33q.21-3.06.68-6.07a4.12,4.12,0,0,0-1.33-3.79,51.53,51.53,0,0,0,.38-8.37c-.31-2.83-3.06-5-5.83-3.55-2.31-.55-5,.68-4.9,3.71,0,.34,0,.67,0,1a15.53,15.53,0,0,0-2.1,8.41c.09,3.5,1.11,6.92,2,10.28.39,1.5.71,3.07,1.09,4.62,0,.12,0,.24,0,.37.25,6,.19,11.82,7.48,12.19,7.92.42,16,0,23.9,0,5.39,0,10.75.21,13.06-5.51C419.16,249.55,416.64,247,414.29,247Z" transform="translate(-90.07 -9.67)"/></svg>