<svg id="Layer_1" data-name="Layer 1" xmlns="http://www.w3.org/2000/svg" viewBox="0 0 1100 800"><defs><style>.cls-1{fill:#a1c639;}</style></defs><title>connector</title><path d="M328.65,152.55H407v26.1h-78.3Z"/><path d="M328.65,257H407v26.1h-78.3Z"/><circle cx="433.05" cy="217.8" r="13.05"/><path d="M380.85,348.3a130.5,130.5,0,1,0-130.5-130.5A130.5,130.5,0,0,0,380.85,348.3Zm0-234.9a104.4,104.4,0,1,1-104.4,104.4A104.4,104.4,0,0,1,380.85,113.4Z"/><path d="M668,152.55h78.3v26.1H668Z"/><path d="M668,257h78.3v26.1H668Z"/><circle cx="772.35" cy="217.8" r="13.05"/><path d="M720.15,348.3a130.5,130.5,0,1,0-130.5-130.5A130.5,130.5,0,0,0,720.15,348.3Zm0-234.9a104.4,104.4,0,1,1-104.4,104.4A104.4,104.4,0,0,1,720.15,113.4Z"/><path d="M929,9H172.05A13,13,0,0,0,159,22h0v391.5a13,13,0,0,0,13,13.05H929a13.05,13.05,0,0,0,13-13h0V22.05A13,13,0,0,0,929,9ZM915.9,400.5H185.1V35.1H915.9Z"/><path d="M668,726.75A39.19,39.19,0,0,1,707.1,687.6a65.25,65.25,0,0,0,0-130.5h-53A117.58,117.58,0,0,0,537.45,452.7H420a13,13,0,0,0-13.05,13h0V504.9H315.6V531H407v26.1H341.7v26.1H407v26.1H315.6v26.1H407v39.15a13,13,0,0,0,13,13.05H537.45A117.58,117.58,0,0,0,654.13,583.2h53a39.15,39.15,0,0,1,0,78.3,65.25,65.25,0,1,0,0,130.5H942V765.9H707.1A39.19,39.19,0,0,1,668,726.75ZM537.45,661.5H433.05V478.8h104.4a91.35,91.35,0,0,1,0,182.7Z"/><path class="cls-1" d="M605.11,553.18A63.32,63.32,0,0,0,598,529.07a37.6,37.6,0,0,0-11.46-21.89,5.35,5.35,0,0,0-.82-.64,47.42,47.42,0,0,0-13.24-8.25A39.6,39.6,0,0,0,548.55,489c-9.81-4.4-22.08-4.32-32.49-4.44a269.79,269.79,0,0,0-61.72,6.6,3.63,3.63,0,0,0-2.28,1.43c-2.33-1.07-5.84.07-6,3.45-.05,1.16-.07,2.31-.1,3.47a9.82,9.82,0,0,0-.59,1.17,9.11,9.11,0,0,0,.48,8.31c.05,4.55.23,9.1.57,13.65.43,5.72-.36,15.31,5.14,18.89,5.2,3.39,14.28,1.57,20.15,1.51,7.56-.06,15.14-.07,22.68.49,14.41,1.08,29,4.69,40.39,14.07,9.65,8,16.36,19,20.55,30.68,5,13.9,6.89,28.66,6.89,43.39a4,4,0,0,0,6,3.45C596.89,620,608.25,583.72,605.11,553.18ZM469.63,527.36a4,4,0,0,0,.48.53l.27.23c-.75,0-1.5.06-2.24.06A5.58,5.58,0,0,0,469.63,527.36ZM504.69,537l-1.64-.26a5.76,5.76,0,0,0,1.2-.78l.67-.06A6.94,6.94,0,0,0,504.69,537Zm18.24-33.58-.91.08c-1-.43-2-.83-3-1.23l4.59.91A4.32,4.32,0,0,0,522.93,503.37Zm6.87,11.94a3.28,3.28,0,0,0,.31-.34l1.69.27ZM543,554.19c.72.38,1.42.78,2.13,1.17.08.39.17.77.26,1.16C544.57,555.72,543.78,554.94,543,554.19Zm53.9,3.5a4.21,4.21,0,0,0-.48-1.3,6.11,6.11,0,0,0,1-.27c.16,2,.23,4.06.24,6.11C597.42,560.7,597.15,559.19,596.87,557.69Z"/><path class="cls-1" d="M897.56,55.15c-.64-6.39-2.58-14.44-9.34-16.9-3.73-1.35-8.1-.54-12-.3l-13.46.86-26.93,1.72A69.31,69.31,0,0,0,823.77,42a319.21,319.21,0,0,0-33.43,2c-2.87.33-5.62,2.26-5.5,5.5.2,5.61,4.67,8.89,10.15,8.06l.46-.07a6.06,6.06,0,0,0,2.09.53c2.08.16,4.15.35,6.23.56a5.15,5.15,0,0,0,3.5,3.19q4,.95,8,2a71.37,71.37,0,0,1,39.73,36c.58,1.2,1.14,2.42,1.68,3.64.51,1.58,1,3.17,1.42,4.78a5.51,5.51,0,0,0,1.54,2.66c2.36,6.44,4.32,13.05,6.4,19.55q3.22,10,6.44,20.08c0,.74.13,1.47.17,2.21a5.41,5.41,0,0,0,1.74,3.76c.91,2.82,1.82,5.65,2.72,8.47,1.53,4.77,9.57,5.68,10.61,0q5.06-27.73,7.67-55.86,1.25-13.66,1.88-27.39C897.65,72.9,898.44,63.87,897.56,55.15ZM878.39,61.2c.08.72.11,1.46.13,2.2l-.15.07c-.26-.14-.52-.28-.79-.4l-.21-1.8Z"/><path class="cls-1" d="M910.79,737.44a19.3,19.3,0,0,0-4.46-2.78c-.14-.16-.27-.31-.42-.46-5.64-5.66-14.67-4.81-21.95-4.71q-15.19.21-30.4.5c-40.83.82-81.68,2.57-122.19,8a5.94,5.94,0,0,0-3.12,1.35c-6.21,1.31-12.26,5-11.37,12.06,1.48,11.62,17,9.31,25.13,9.23l80.27-.76,89.19-.85a5.61,5.61,0,0,0,5.31-4C918.56,748.33,916,741.79,910.79,737.44Z"/><path class="cls-1" d="M331.15,351.85c-2.8-5-8.7-7.44-13.39-10.25C296.87,329,275.43,315.31,261.26,295a82.47,82.47,0,0,1-9.75-18.77c-1.39-4.58-2.69-9.17-4-13.71,0-.07-.06-.14-.08-.22s-.06-.23-.08-.34c-.34-1.54-.69-3.07-1.07-4.59l0-.62a5.13,5.13,0,0,0-.85-2.64c-2.3-7.91-5.84-15.2-13.19-20a5.54,5.54,0,0,0-8.08,3.29q-.63,2.72-1.11,5.44a5.34,5.34,0,0,0-2.11,5.64c.27,1.28.57,2.56.86,3.84a103.41,103.41,0,0,0,54.89,101q2.13,1.11,4.31,2.13a47.68,47.68,0,0,0,4.14,2.48c2.35,1.9,4.75,3.73,7.23,5.48a4.79,4.79,0,0,0,6.33-.68,90,90,0,0,0,13.75,2c5,.33,12.53,1.24,16.88-1.92C332.85,360.23,333.16,355.46,331.15,351.85Zm-96.88-95.16q-.72-2.64-1.37-5.31c0-.06,0-.11,0-.17a33.63,33.63,0,0,1,1.77,4.81C234.55,256.24,234.4,256.47,234.27,256.69Z"/></svg>