<svg xmlns="http://www.w3.org/2000/svg" viewBox="0 0 32 32"><circle cx="16" cy="16" r="16" fill="transparent"/><path d="M14.205 4.82l1.511-.491a.446.446 0 01.562.286l.491 1.511a.446.446 0 01-.286.562l-1.511.491a.446.446 0 01-.562-.286l-.491-1.511a.446.446 0 01.286-.562zm-1.779 9.94h-2.171a.446.446 0 01-.446-.446v-1.586c0-.246.199-.446.446-.446h.693l-1.745-5.37a.445.445 0 01.287-.561l1.509-.49a.445.445 0 01.561.287l2.201 6.775a.45.45 0 01-.063.4l-.911 1.255a.444.444 0 01-.361.184zm-7.123-2.477h1.588c.246 0 .446.2.446.446v1.588c0 .246-.2.446-.446.446H5.303a.446.446 0 01-.446-.446v-1.588c0-.246.2-.446.446-.446zm7.227 9.145l-1.509-.491a.446.446 0 01-.287-.561l.214-.659H5.302a.446.446 0 01-.446-.446v-1.586c0-.246.199-.446.446-.446h7.124c.143 0 .276.069.361.184l.911 1.255a.446.446 0 01.063.4l-.67 2.064a.446.446 0 01-.561.287zm-3.326 3.658l.491-1.511a.446.446 0 01.562-.286l1.511.491a.446.446 0 01.286.562l-.491 1.511a.446.446 0 01-.562.286l-1.511-.491a.446.446 0 01-.286-.562zm6.509 2.585l-1.509-.491a.446.446 0 01-.287-.561l2.201-6.775a.449.449 0 01.287-.287l1.474-.479a.45.45 0 01.4.063l1.756 1.276a.444.444 0 01.098.622l-.933 1.284a.444.444 0 01-.622.098l-.56-.407-1.745 5.37a.446.446 0 01-.561.287zm5.49-3.894l.934-1.285a.447.447 0 01.623-.099l1.285.934a.447.447 0 01.099.623l-.934 1.285a.447.447 0 01-.623.099l-1.285-.934a.447.447 0 01-.099-.623zm-3.322-10.855l-1.474-.479a.449.449 0 01-.287-.287l-.67-2.064a.445.445 0 01.287-.561l1.509-.491a.445.445 0 01.561.287l.214.659 4.567-3.319a.445.445 0 01.622.098l.933 1.284a.445.445 0 01-.098.622l-5.764 4.187a.446.446 0 01-.4.063zm7.62 8.401l-5.764-4.187a.444.444 0 01-.184-.361v-1.55c0-.143.069-.276.184-.361l1.756-1.276a.445.445 0 01.622.098l.933 1.284a.445.445 0 01-.098.622l-.56.407 4.568 3.319a.444.444 0 01.098.622l-.933 1.284a.444.444 0 01-.622.098v-.002zm-1.286-9.713l1.285-.934a.445.445 0 01.623.099l.934 1.285a.445.445 0 01-.099.623l-1.285.934a.445.445 0 01-.623-.099l-.934-1.285a.445.445 0 01.099-.623z" fill="#55c96b"/></svg>