<svg data-name="Layer 1" xmlns="http://www.w3.org/2000/svg" viewBox="0 0 388.61 268.76"><g data-name="27-App"><path d="M225.32 215.03H38.22a9.67 9.67 0 01-9.67-9.68V63.42a9.67 9.67 0 019.67-9.68h187.1a9.68 9.68 0 019.68 9.68v141.91a9.68 9.68 0 01-9.68 9.7zM38.22 60.19A3.22 3.22 0 0035 63.42v141.91a3.23 3.23 0 003.22 3.23h187.1a3.23 3.23 0 003.23-3.23V63.42a3.23 3.23 0 00-3.23-3.23z"/><path d="M173.71 253.74H89.84a3.23 3.23 0 01-3.23-3.23v-9.68a3.19 3.19 0 01.41-1.56l16.13-29 5.63 3.14-15.72 28.3v5.62h77.42v-5.62l-15.72-28.38 5.64-3.14 16.13 29a3.29 3.29 0 01.4 1.56v9.68a3.23 3.23 0 01-3.22 3.31z"/><path d="M89.84 237.61h83.87v6.45H89.84zm-9.68 9.72h9.68v6.45h-9.68zm93.55 0h9.67v6.45h-9.67zM31.77 182.77h200v6.45h-200zm132.26-16.13h54.84v6.45h-54.84zm6.45-12.9h48.39v6.45h-48.39zm-6.45-70.97h54.84v6.45h-54.84zm-6.45-12.9h61.29v6.46h-61.29zm45.16 70.96h16.13v6.5h-16.13zm-22.58 0h16.13v6.5h-16.13zm22.58-45.16h16.13v6.45h-16.13zm-22.58 0h16.13v6.45h-16.13zm-87.1 58.07h-6.45V111.8a9.21 9.21 0 00-8.7-9.68h-7.45a9.22 9.22 0 00-9.68 8.71v42.94h-6.45V111.8a15.56 15.56 0 0115-16.13h7.6a15.55 15.55 0 0116.13 15 11.41 11.41 0 010 1.17z"/><path d="M57.58 131.16h32.26v6.45H57.58zm48.35 22.58h-6.46V98.9a3.23 3.23 0 013.23-3.23h16.13c3.35 0 9.68 2.7 9.68 12.91 0 15.8-13.51 23.05-22.58 25.24zm0-51.62v25c5.74-1.72 16.12-6.49 16.12-18.52 0-5.94-2.76-6.42-3.32-6.46zM135 95.67h25.8v6.45H135zm0 51.66h25.8v6.45H135z"/><path d="M144.67 98.9h6.46v51.61h-6.46z"/></g><path d="M325.08 143.33h-3.15a21.23 21.23 0 00-20 13.15 20.74 20.74 0 004.68 23.18l2.26 2.24-12.84 12.67-2.22-2.24a21.42 21.42 0 00-23.49-4.62 21 21 0 00-13.3 19.66v3.15h-22.69v-28.79a50.22 50.22 0 0013.6 1.93c27.52 0 49.92-22.11 49.92-49.28s-22.39-49.27-49.92-49.27a50.22 50.22 0 00-13.61 1.93V58.23h22.69v3.16a21 21 0 0013.3 19.66 21.41 21.41 0 0023.49-4.62l2.26-2.23 12.87 12.67-2.26 2.24a20.74 20.74 0 00-4.69 23.22 21.21 21.21 0 0019.95 13.09h3.19zm49.92-4.48a4.48 4.48 0 114.54-4.48 4.51 4.51 0 01-4.54 4.49zm0-89.58a13.59 13.59 0 00-12.78 9H338.7a4.56 4.56 0 00-3.63 1.8l-13.62 17.87 7.26 5.39 12.22-16.14h21.25a13.56 13.56 0 1012.78-17.92zm0 17.92a4.48 4.48 0 114.54-4.48 4.51 4.51 0 01-4.54 4.48zM375 0a13.59 13.59 0 00-12.78 9h-87.05a4.5 4.5 0 00-4.54 4.48v22.4h9.08V17.92h82.51a13.61 13.61 0 0026.4-4.48A13.55 13.55 0 00375 0zm0 17.92a4.48 4.48 0 114.54-4.48 4.52 4.52 0 01-4.54 4.48zm0 174.69a13.59 13.59 0 00-12.78 9h-21.29l-12.26-16.12-7.26 5.37 13.62 17.92a4.54 4.54 0 003.63 1.79h23.52a13.56 13.56 0 1012.78-17.92zm0 17.92a4.48 4.48 0 114.54-4.48 4.51 4.51 0 01-4.54 4.48zm0 31.36a13.59 13.59 0 00-12.78 9h-82.51v-17.96h-9.08v22.4a4.51 4.51 0 004.54 4.48h87.05A13.56 13.56 0 10375 241.89zm0 17.92a4.48 4.48 0 114.54-4.48 4.52 4.52 0 01-4.54 4.48z"/><path d="M285.84 128.71a69.61 69.61 0 00-3.86-10.93c-.12-.36-.22-.73-.35-1.1a41.28 41.28 0 00-7.19-12.68c-.64-1-1.28-2-1.94-3-2.27-3.35-5-6.46-9.18-7.14a10.07 10.07 0 00-3.1 0 23.8 23.8 0 00-16.22.51c-4.44 1.71-2.93 8.56 1.2 8a3.92 3.92 0 001.32 1.08 45.57 45.57 0 0122.16 26.14 43.47 43.47 0 012.16 16.74c-.63 8.54-5.16 12.84-12 17.28a4 4 0 004 6.91 33.53 33.53 0 005.07-3.29 3 3 0 00.46.48c7.48 5.87 13.7-4.63 16.16-10.66 3.7-8.99 3.71-19.07 1.31-28.34zM119.2 197.54c-2.55-5.66-11.63-3.93-16.36-3.9l-52.15.33a4.1 4.1 0 00-1.26.22 4.05 4.05 0 00-4.17-1.74c-4.63.84-6.51 6.72-3.8 10.43 3.67 5 11.89 3.51 17.18 3.47 17.45-.13 35 .12 52.4-.41 4.43-.13 10.75-2.61 8.16-8.4zM67.93 14.69C66 12.2 63.98 9.45 61.03 8.1c-3.63-1.66-7.86-.59-11.68-.4-3 .15-6.19.22-9.38.36-.82-.14-1.6-.25-2.33-.31-4.25-.39-9.5-.3-13.15 2.27-6.38 1.66-12.13 4.76-16.29 10.72-4.92 7.05-5.77 15.94-6.87 24.22-1.31 10-2 19.78-.2 29.73a3.36 3.36 0 002.07 2.49c-1.16 4.38 5.17 7.88 7.12 3.38 3-7 2.46-14 3.54-21.32 1.28-8.64 7.23-12.35 15.24-14.23s16.59-2.75 24.85-4c6.94-1.06 15.48-1.06 18.39-8.73 2.4-6.38-.53-12.55-4.41-17.59zm-2.9 10.89a6.58 6.58 0 01.13 2.78 4.19 4.19 0 00-1.5-.55 29.07 29.07 0 00.6-4.42 11.8 11.8 0 01.75 2.19zM26.71 27.4l.4.26c-.65.28-1.3.57-1.93.88.47-.4.99-.78 1.51-1.14zm12.15 5.7a37.69 37.69 0 01-4.75 1.86 18 18 0 014.73-1.86zm18.77-17.64c-.41 0-.81 0-1.22.06l-.36-.34a5.74 5.74 0 011.56.28zm317.54-5.51c-5.15 0-5.15 8 0 8s5.16-8 0-8zm1 48.77c-5.15 0-5.16 8 0 8s5.15-8 0-8zm-1.99 143.34c-5.15 0-5.16 8 0 8s5.15-8 0-8zm.99 48.77c-5.15 0-5.15 8 0 8s5.16-8 0-8zm-51.36-222.5a4.1 4.1 0 00-3.79-4.88 142.9 142.9 0 00-19.56-.5c-3.09-.57-6.17-1-9.24-1.33-5-.47-6.56 2.87-6.89 7-1.34 3.27-.84 7.73-.92 11.67-.06 3.28 3.88 4.77 6.23 3.44l.09.21c2.28 4.61 9.18.56 6.91-4-1.45-2.94-1.58-4.49 1.83-5.32 2.08-.5 5.06.15 7.2.23l15.36.48c3.72.14 5.09-4.89 2.78-7zm.41 209h-1.16a4 4 0 00-.83-.21l-12.72-1.82c-3.65-.52-7.94-.62-11.45-1.82a7 7 0 01-4.46-4.33q.21-3.06.68-6.07a4.12 4.12 0 00-1.33-3.79 51.53 51.53 0 00.38-8.37c-.31-2.83-3.06-5-5.83-3.55-2.31-.55-5 .68-4.9 3.71v1a15.53 15.53 0 00-2.1 8.41c.09 3.5 1.11 6.92 2 10.28.39 1.5.71 3.07 1.09 4.62v.37c.25 6 .19 11.82 7.48 12.19 7.92.42 16 0 23.9 0 5.39 0 10.75.21 13.06-5.51 1.06-2.56-1.46-5.11-3.81-5.11z" fill="#55c96b"/></svg>