<svg data-name="Layer 1" xmlns="http://www.w3.org/2000/svg" viewBox="0 0 1100 800"><path d="M328.65 152.55H407v26.1h-78.3zm0 104.45H407v26.1h-78.3z"/><circle cx="433.05" cy="217.8" r="13.05"/><path d="M380.85 348.3a130.5 130.5 0 10-130.5-130.5 130.5 130.5 0 00130.5 130.5zm0-234.9a104.4 104.4 0 11-104.4 104.4 104.4 104.4 0 01104.4-104.4zM668 152.55h78.3v26.1H668zM668 257h78.3v26.1H668z"/><circle cx="772.35" cy="217.8" r="13.05"/><path d="M720.15 348.3a130.5 130.5 0 10-130.5-130.5 130.5 130.5 0 00130.5 130.5zm0-234.9a104.4 104.4 0 11-104.4 104.4 104.4 104.4 0 01104.4-104.4z"/><path d="M929 9H172.05A13 13 0 00159 22v391.5a13 13 0 0013 13.05h757a13.05 13.05 0 0013-13V22.05A13 13 0 00929 9zm-13.1 391.5H185.1V35.1h730.8zM668 726.75a39.19 39.19 0 0139.1-39.15 65.25 65.25 0 000-130.5h-53a117.58 117.58 0 00-116.65-104.4H420a13 13 0 00-13.05 13v39.2H315.6V531H407v26.1h-65.3v26.1H407v26.1h-91.4v26.1H407v39.15a13 13 0 0013 13.05h117.45a117.58 117.58 0 00116.68-104.4h53a39.15 39.15 0 010 78.3 65.25 65.25 0 100 130.5H942v-26.1H707.1a39.19 39.19 0 01-39.1-39.15zM537.45 661.5h-104.4V478.8h104.4a91.35 91.35 0 010 182.7z"/><path d="M605.11 553.18a63.32 63.32 0 00-7.11-24.11 37.6 37.6 0 00-11.46-21.89 5.35 5.35 0 00-.82-.64 47.42 47.42 0 00-13.24-8.25 39.6 39.6 0 00-23.93-9.29c-9.81-4.4-22.08-4.32-32.49-4.44a269.79 269.79 0 00-61.72 6.6 3.63 3.63 0 00-2.28 1.43c-2.33-1.07-5.84.07-6 3.45-.05 1.16-.07 2.31-.1 3.47a9.82 9.82 0 00-.59 1.17 9.11 9.11 0 00.48 8.31c.05 4.55.23 9.1.57 13.65.43 5.72-.36 15.31 5.14 18.89 5.2 3.39 14.28 1.57 20.15 1.51 7.56-.06 15.14-.07 22.68.49 14.41 1.08 29 4.69 40.39 14.07 9.65 8 16.36 19 20.55 30.68 5 13.9 6.89 28.66 6.89 43.39a4 4 0 006 3.45c28.67-15.12 40.03-51.4 36.89-81.94zm-135.48-25.82a4 4 0 00.48.53l.27.23c-.75 0-1.5.06-2.24.06a5.58 5.58 0 001.49-.82zm35.06 9.64l-1.64-.26a5.76 5.76 0 001.2-.78l.67-.06a6.94 6.94 0 00-.23 1.1zm18.24-33.58l-.91.08c-1-.43-2-.83-3-1.23l4.59.91a4.32 4.32 0 00-.68.19zm6.87 11.94a3.28 3.28 0 00.31-.34l1.69.27zm13.2 38.83c.72.38 1.42.78 2.13 1.17.08.39.17.77.26 1.16-.82-.8-1.61-1.58-2.39-2.33zm53.9 3.5a4.21 4.21 0 00-.48-1.3 6.11 6.11 0 001-.27c.16 2 .23 4.06.24 6.11-.24-1.53-.51-3.04-.79-4.54zM897.56 55.15c-.64-6.39-2.58-14.44-9.34-16.9-3.73-1.35-8.1-.54-12-.3l-13.46.86-26.93 1.72A69.31 69.31 0 00823.77 42a319.21 319.21 0 00-33.43 2c-2.87.33-5.62 2.26-5.5 5.5.2 5.61 4.67 8.89 10.15 8.06l.46-.07a6.06 6.06 0 002.09.53c2.08.16 4.15.35 6.23.56a5.15 5.15 0 003.5 3.19q4 .95 8 2a71.37 71.37 0 0139.73 36c.58 1.2 1.14 2.42 1.68 3.64.51 1.58 1 3.17 1.42 4.78a5.51 5.51 0 001.54 2.66c2.36 6.44 4.32 13.05 6.4 19.55q3.22 10 6.44 20.08c0 .74.13 1.47.17 2.21a5.41 5.41 0 001.74 3.76c.91 2.82 1.82 5.65 2.72 8.47 1.53 4.77 9.57 5.68 10.61 0q5.06-27.73 7.67-55.86 1.25-13.66 1.88-27.39c.38-8.77 1.17-17.8.29-26.52zm-19.17 6.05c.08.72.11 1.46.13 2.2l-.15.07c-.26-.14-.52-.28-.79-.4l-.21-1.8zm32.4 676.24a19.3 19.3 0 00-4.46-2.78c-.14-.16-.27-.31-.42-.46-5.64-5.66-14.67-4.81-21.95-4.71q-15.19.21-30.4.5c-40.83.82-81.68 2.57-122.19 8a5.94 5.94 0 00-3.12 1.35c-6.21 1.31-12.26 5-11.37 12.06 1.48 11.62 17 9.31 25.13 9.23l80.27-.76 89.19-.85a5.61 5.61 0 005.31-4c1.78-6.69-.78-13.23-5.99-17.58zM331.15 351.85c-2.8-5-8.7-7.44-13.39-10.25-20.89-12.6-42.33-26.29-56.5-46.6a82.47 82.47 0 01-9.75-18.77c-1.39-4.58-2.69-9.17-4-13.71 0-.07-.06-.14-.08-.22s-.06-.23-.08-.34c-.34-1.54-.69-3.07-1.07-4.59v-.62a5.13 5.13 0 00-.85-2.64c-2.3-7.91-5.84-15.2-13.19-20a5.54 5.54 0 00-8.08 3.29q-.63 2.72-1.11 5.44a5.34 5.34 0 00-2.11 5.64c.27 1.28.57 2.56.86 3.84a103.41 103.41 0 0054.89 101q2.13 1.11 4.31 2.13a47.68 47.68 0 004.14 2.48c2.35 1.9 4.75 3.73 7.23 5.48a4.79 4.79 0 006.33-.68 90 90 0 0013.75 2c5 .33 12.53 1.24 16.88-1.92 3.52-2.58 3.83-7.35 1.82-10.96zm-96.88-95.16q-.72-2.64-1.37-5.31v-.17a33.63 33.63 0 011.77 4.81c-.12.22-.27.45-.4.67z" fill="#a1c639"/></svg>